<svg width="912" height="742" viewBox="0 0 912 742" fill="none" xmlns="http://www.w3.org/2000/svg">
<path d="M0 24.9924C0 38.7954 11.1895 49.9849 24.9924 49.9849H319.498C333.301 49.9849 344.491 38.7954 344.491 24.9924V24.9924C344.491 11.1895 333.301 -4.19617e-05 319.498 -4.19617e-05H24.9925C11.1895 -4.19617e-05 0 11.1895 0 24.9924V24.9924Z" fill="#29AFED"/>
<path d="M358 24.9924C358 38.7954 369.19 49.9849 382.992 49.9849H569.423C583.226 49.9849 594.415 38.7954 594.415 24.9924V24.9924C594.415 11.1895 583.226 -4.19617e-05 569.423 -4.19617e-05H382.992C369.19 -4.19617e-05 358 11.1895 358 24.9924V24.9924Z" fill="#C3F7CC"/>
<path d="M607.924 24.9924C607.924 38.7954 619.114 49.9849 632.917 49.9849H731.536C745.339 49.9849 756.528 38.7954 756.528 24.9924V24.9924C756.528 11.1895 745.339 -4.19617e-05 731.536 -4.19617e-05H632.917C619.114 -4.19617e-05 607.924 11.1895 607.924 24.9924V24.9924Z" fill="#E68CCF"/>
<path d="M0 101.996C0 115.799 11.1895 126.989 24.9924 126.989H123.611C137.414 126.989 148.604 115.799 148.604 101.996V101.996C148.604 88.1932 137.414 77.0037 123.611 77.0037H24.9924C11.1895 77.0037 0 88.1932 0 101.996V101.996Z" fill="#F7E7C3"/>
<path d="M324.226 101.996C324.226 115.799 335.416 126.989 349.219 126.989H601.845C615.648 126.989 626.838 115.799 626.838 101.996V101.996C626.838 88.1932 615.648 77.0037 601.845 77.0037H349.219C335.416 77.0037 324.226 88.1932 324.226 101.996V101.996Z" fill="#F7C3C4"/>
<path d="M0 179C0 192.803 11.1895 203.992 24.9924 203.992H333.008C346.811 203.992 358 192.803 358 179V179C358 165.197 346.81 154.008 333.008 154.008H24.9924C11.1895 154.008 0 165.197 0 179V179Z" fill="#F57171"/>
<path d="M0 256.004C0 269.807 11.1895 280.996 24.9924 280.996H161.438C175.241 280.996 186.43 269.807 186.43 256.004V256.004C186.43 242.201 175.241 231.011 161.438 231.011H24.9924C11.1895 231.011 0 242.201 0 256.004V256.004Z" fill="#C3C8F7"/>
<path d="M199.94 256.004C199.94 269.807 211.129 280.996 224.932 280.996H620.759C634.561 280.996 645.751 269.807 645.751 256.004V256.004C645.751 242.201 634.561 231.011 620.758 231.011H224.932C211.129 231.011 199.94 242.201 199.94 256.004V256.004Z" fill="#C3F7F0"/>
<path d="M659.26 256.004C659.26 269.807 670.45 280.996 684.253 280.996H886.894C900.697 280.996 911.887 269.807 911.887 256.004V256.004C911.887 242.201 900.697 231.011 886.894 231.011H684.253C670.45 231.011 659.26 242.201 659.26 256.004V256.004Z" fill="#29AFED"/>
<path d="M0 333.008C0 346.81 11.1895 358 24.9924 358H470.804C484.607 358 495.796 346.81 495.796 333.008V333.008C495.796 319.205 484.607 308.015 470.804 308.015H24.9925C11.1895 308.015 0 319.205 0 333.008V333.008Z" fill="#F7E7C3"/>
<path d="M509.306 333.008C509.306 346.81 520.495 358 534.298 358H572.125C585.927 358 597.117 346.81 597.117 333.008V333.008C597.117 319.205 585.927 308.015 572.125 308.015H534.298C520.495 308.015 509.306 319.205 509.306 333.008V333.008Z" fill="#F7C3C4"/>
<path d="M610.626 333.008C610.626 346.81 621.816 358 635.619 358H811.242C825.044 358 836.234 346.81 836.234 333.008V333.008C836.234 319.205 825.044 308.015 811.242 308.015H635.619C621.816 308.015 610.626 319.205 610.626 333.008V333.008Z" fill="#F57171"/>
<path d="M162.113 101.996C162.113 115.799 173.303 126.989 187.106 126.989H285.725C299.528 126.989 310.717 115.799 310.717 101.996V101.996C310.717 88.1932 299.527 77.0037 285.725 77.0037H187.106C173.303 77.0037 162.113 88.1932 162.113 101.996V101.996Z" fill="#C3C8F7"/>
<path d="M371.509 179C371.509 192.803 382.699 203.992 396.502 203.992H495.121C508.924 203.992 520.113 192.803 520.113 179V179C520.113 165.197 508.924 154.008 495.121 154.008H396.502C382.699 154.008 371.509 165.197 371.509 179V179Z" fill="#ECC3F7"/>
<path d="M533.623 179C533.623 192.803 544.812 203.992 558.615 203.992H797.732C811.535 203.992 822.725 192.803 822.725 179V179C822.725 165.197 811.535 154.008 797.732 154.008H558.615C544.812 154.008 533.623 165.197 533.623 179V179Z" fill="#F7E7C3"/>
<path d="M640.347 101.996C640.347 115.799 651.537 126.989 665.34 126.989H846.366C860.169 126.989 871.359 115.799 871.359 101.996V101.996C871.359 88.1932 860.169 77.0037 846.366 77.0037H665.34C651.537 77.0037 640.347 88.1932 640.347 101.996V101.996Z" fill="#C3F7F0"/>
<path d="M0 408.992C0 422.795 11.1895 433.985 24.9924 433.985H319.498C333.301 433.985 344.491 422.795 344.491 408.992V408.992C344.491 395.189 333.301 384 319.498 384H24.9925C11.1895 384 0 395.189 0 408.992V408.992Z" fill="#29AFED"/>
<path d="M358 408.992C358 422.795 369.19 433.985 382.992 433.985H569.423C583.226 433.985 594.415 422.795 594.415 408.992V408.992C594.415 395.189 583.226 384 569.423 384H382.992C369.19 384 358 395.189 358 408.992V408.992Z" fill="#C3F7CC"/>
<path d="M607.924 408.992C607.924 422.795 619.114 433.985 632.917 433.985H731.536C745.339 433.985 756.528 422.795 756.528 408.992V408.992C756.528 395.189 745.339 384 731.536 384H632.917C619.114 384 607.924 395.189 607.924 408.992V408.992Z" fill="#E68CCF"/>
<path d="M0 485.996C0 499.799 11.1895 510.989 24.9924 510.989H123.611C137.414 510.989 148.604 499.799 148.604 485.996V485.996C148.604 472.193 137.414 461.004 123.611 461.004H24.9924C11.1895 461.004 0 472.193 0 485.996V485.996Z" fill="#F7E7C3"/>
<path d="M324.226 485.996C324.226 499.799 335.416 510.989 349.219 510.989H601.845C615.648 510.989 626.838 499.799 626.838 485.996V485.996C626.838 472.193 615.648 461.004 601.845 461.004H349.219C335.416 461.004 324.226 472.193 324.226 485.996V485.996Z" fill="#F7C3C4"/>
<path d="M0 563C0 576.803 11.1895 587.992 24.9924 587.992H333.008C346.811 587.992 358 576.803 358 563V563C358 549.197 346.81 538.008 333.008 538.008H24.9924C11.1895 538.008 0 549.197 0 563V563Z" fill="#F57171"/>
<path d="M0 640.004C0 653.807 11.1895 664.996 24.9924 664.996H161.438C175.241 664.996 186.43 653.807 186.43 640.004V640.004C186.43 626.201 175.241 615.011 161.438 615.011H24.9924C11.1895 615.011 0 626.201 0 640.004V640.004Z" fill="#C3C8F7"/>
<path d="M199.94 640.004C199.94 653.807 211.129 664.996 224.932 664.996H620.759C634.561 664.996 645.751 653.807 645.751 640.004V640.004C645.751 626.201 634.561 615.011 620.758 615.011H224.932C211.129 615.011 199.94 626.201 199.94 640.004V640.004Z" fill="#C3F7F0"/>
<path d="M659.26 640.004C659.26 653.807 670.45 664.996 684.253 664.996H886.894C900.697 664.996 911.887 653.807 911.887 640.004V640.004C911.887 626.201 900.697 615.011 886.894 615.011H684.253C670.45 615.011 659.26 626.201 659.26 640.004V640.004Z" fill="#29AFED"/>
<path d="M0 717.008C0 730.81 11.1895 742 24.9924 742H470.804C484.607 742 495.796 730.81 495.796 717.008V717.008C495.796 703.205 484.607 692.015 470.804 692.015H24.9925C11.1895 692.015 0 703.205 0 717.008V717.008Z" fill="#F7E7C3"/>
<path d="M509.306 717.008C509.306 730.81 520.495 742 534.298 742H572.125C585.927 742 597.117 730.81 597.117 717.008V717.008C597.117 703.205 585.927 692.015 572.125 692.015H534.298C520.495 692.015 509.306 703.205 509.306 717.008V717.008Z" fill="#F7C3C4"/>
<path d="M610.626 717.008C610.626 730.81 621.816 742 635.619 742H811.242C825.044 742 836.234 730.81 836.234 717.008V717.008C836.234 703.205 825.044 692.015 811.242 692.015H635.619C621.816 692.015 610.626 703.205 610.626 717.008V717.008Z" fill="#F57171"/>
<path d="M162.113 485.996C162.113 499.799 173.303 510.989 187.106 510.989H285.725C299.528 510.989 310.717 499.799 310.717 485.996V485.996C310.717 472.193 299.527 461.004 285.725 461.004H187.106C173.303 461.004 162.113 472.193 162.113 485.996V485.996Z" fill="#C3C8F7"/>
<path d="M371.509 563C371.509 576.803 382.699 587.992 396.502 587.992H495.121C508.924 587.992 520.113 576.803 520.113 563V563C520.113 549.197 508.924 538.008 495.121 538.008H396.502C382.699 538.008 371.509 549.197 371.509 563V563Z" fill="#ECC3F7"/>
<path d="M533.623 563C533.623 576.803 544.812 587.992 558.615 587.992H797.732C811.535 587.992 822.725 576.803 822.725 563V563C822.725 549.197 811.535 538.008 797.732 538.008H558.615C544.812 538.008 533.623 549.197 533.623 563V563Z" fill="#F7E7C3"/>
<path d="M640.347 485.996C640.347 499.799 651.537 510.989 665.34 510.989H846.366C860.169 510.989 871.359 499.799 871.359 485.996V485.996C871.359 472.193 860.169 461.004 846.366 461.004H665.34C651.537 461.004 640.347 472.193 640.347 485.996V485.996Z" fill="#C3F7F0"/>
</svg>
